<svg xmlns="http://www.w3.org/2000/svg" viewBox="0 0 64 64">
  <rect width="64" height="64" rx="14" fill="#0f0f23"/>
  <path d="M18 51h28v6H18z" fill="#81b64c"/>
  <path d="M23 43h18l4 8H19z" fill="#f4f7ef"/>
  <path d="M27 18h10l-2 25h-6z" fill="#f4f7ef"/>
  <path d="M32 7l4 7 8 1-6 6 2 8-8-4-8 4 2-8-6-6 8-1z" fill="#81b64c"/>
  <path d="M23 43h18l2 4H21z" fill="#d8dfcf"/>
  <path d="M0 0h16v16H0zM32 0h16v16H32zM16 16h16v16H16zM48 16h16v16H48zM0 32h16v16H0zM32 32h16v16H32zM16 48h16v16H16zM48 48h16v16H48z" fill="#ffffff" opacity=".04"/>
</svg>
